<svg width="219" height="59" viewBox="0 0 219 59" fill="none" xmlns="http://www.w3.org/2000/svg">
<mask id="mask0_1538_181" style="mask-type:alpha" maskUnits="userSpaceOnUse" x="0" y="0" width="219" height="59">
<rect width="219" height="59" rx="12" fill="white"/>
</mask>
<g mask="url(#mask0_1538_181)">
<path d="M219.019 27.5159C212.879 2.90986 206.358 -10.167 193.351 -13.8775C190.518 -14.6843 188.106 -15 185.879 -15C177.871 -15 172.259 -10.9163 157.999 -10.9163C143.73 -10.9163 138.121 -14.9994 130.124 -15C127.9 -15 125.492 -14.6843 122.66 -13.8775C109.64 -10.167 103.119 2.90986 96.9905 27.5159C90.8442 52.1224 91.9606 69.8918 99.2188 73.2087C100.4 73.7497 101.607 74 102.833 74C109.128 74 115.931 67.3701 122.466 59.5244C129.91 50.5952 131.785 50.3594 154.466 50.3594H161.53C184.207 50.3594 186.087 50.5947 193.532 59.5244C200.068 67.3695 206.871 73.988 213.167 73.988C214.393 73.988 215.599 73.7436 216.781 73.2029C224.037 69.886 225.154 52.1224 219.019 27.5159ZM122.956 31.6229C116.677 31.6229 111.571 26.684 111.571 20.6028C111.571 14.5285 116.677 9.57707 122.956 9.57707C129.24 9.57707 134.346 14.5285 134.346 20.6028C134.346 26.684 129.24 31.6229 122.956 31.6229ZM173.111 26.2014C169.903 26.2014 167.286 23.693 167.286 20.6092C167.286 17.5248 169.903 15.0178 173.111 15.0178C176.341 15.0178 178.958 17.5248 178.958 20.6092C178.958 23.693 176.341 26.2014 173.111 26.2014ZM185.854 38.4C182.645 38.4 180.035 35.9105 180.035 32.833C180.035 29.73 182.645 27.2411 185.854 27.2411C189.088 27.2411 191.7 29.73 191.7 32.833C191.701 35.9105 189.088 38.4 185.854 38.4ZM185.854 13.9778C182.645 13.9778 180.035 11.4767 180.035 8.39226C180.035 5.30674 182.645 2.8 185.854 2.8C189.088 2.8 191.7 5.30702 191.7 8.39226C191.701 11.4767 189.088 13.9778 185.854 13.9778ZM198.61 26.2014C195.387 26.2014 192.777 23.693 192.777 20.6092C192.777 17.5248 195.387 15.0178 198.61 15.0178C201.819 15.0178 204.429 17.5248 204.429 20.6092C204.429 23.693 201.819 26.2014 198.61 26.2014Z" fill="url(#paint0_linear_1538_181)"/>
</g>
<defs>
<linearGradient id="paint0_linear_1538_181" x1="225.5" y1="30" x2="138" y2="30.1838" gradientUnits="userSpaceOnUse">
<stop offset="0.0400508" stop-color="#FAFF00" stop-opacity="0.55"/>
<stop offset="1" stop-color="#F2E800" stop-opacity="0"/>
</linearGradient>
</defs>
</svg>
